# xmcd CD database file generated by Grip 2.96
# 
# Track frame offsets:
#       150
#       26531
#       60605
#       76323
#       101850
#       120153
#       153074
#       168568
#       184879
#       197992
# 
# Disc length: 2864 seconds
# 
# Revision: 0
# Processed by: cddbd v1.4PL0 Copyright (c) Steve Scherf et al.
# Submitted via: Grip 2.96
# 
DISCID=7a0b2e0a
DTITLE=Kule Kolbjørn - Play Blues
DYEAR=1900
DGENRE=
TTITLE0=Aleks
TTITLE1=Tribute To Dr Hendriks
TTITLE2=Rio Fredrikstad Blues
TTITLE3=Albatros
TTITLE4=From Rustlers To Haven
TTITLE5=To My Woman
TTITLE6=Feal The Blues
TTITLE7=Eart Wind And Fire
TTITLE8=Dreamer
TTITLE9=Feal The Blues.B
EXTD=
EXTT0=
EXTT1=
EXTT2=
EXTT3=
EXTT4=
EXTT5=
EXTT6=
EXTT7=
EXTT8=
EXTT9=
PLAYORDER=
